<svg width="451" height="451" viewBox="0 0 451 451" fill="none" xmlns="http://www.w3.org/2000/svg">
<g clip-path="url(#clip0_403_2)">
<path d="M213.556 287.649H194.798L175.009 326.008L174.071 326.946C173.643 327.432 173.116 327.821 172.526 328.087C171.936 328.354 171.295 328.493 170.648 328.494L157.142 328.587C156.071 328.614 155.023 328.269 154.176 327.611C153.33 326.953 152.738 326.022 152.5 324.977L146.779 303.405C143.287 290.096 143.031 276.144 146.033 262.716C149.036 249.287 155.208 236.773 164.036 226.217L174.681 213.509C173.399 198.659 172.742 185.498 172.711 174.024C172.068 151.671 175.713 129.401 183.45 108.419C192.615 88.3126 205.613 70.1858 221.716 55.0537C222.669 54.1174 223.944 53.5806 225.28 53.5531C225.903 53.5267 226.524 53.6297 227.105 53.8557C227.687 54.0817 228.215 54.4258 228.656 54.8662C244.64 70.2103 257.423 88.5717 266.265 108.888C274.215 129.742 278.006 151.949 277.426 174.259C277.473 185.842 276.769 199.019 275.456 213.744L286.054 226.405C294.899 236.933 301.098 249.424 304.132 262.835C307.167 276.246 306.95 290.189 303.499 303.499L297.872 324.977C297.619 325.793 297.168 326.534 296.559 327.134C295.643 328.013 294.448 328.544 293.182 328.634L279.536 328.587C278.677 328.607 277.83 328.384 277.092 327.944C276.354 327.505 275.755 326.866 275.363 326.102L255.011 287.649L236.816 287.649M244.412 118.548C239.334 113.445 232.438 110.564 225.238 110.538C218.038 110.511 211.122 113.342 206.006 118.408C203.269 120.887 201.065 123.896 199.527 127.253C197.988 130.61 197.148 134.245 197.057 137.936C196.966 141.627 197.626 145.299 198.997 148.728C200.368 152.156 202.421 155.271 205.032 157.882C207.643 160.493 210.758 162.546 214.186 163.917C217.615 165.288 221.287 165.948 224.978 165.857C228.669 165.766 232.304 164.926 235.661 163.387C239.018 161.849 242.027 159.645 244.506 156.908C249.569 151.86 252.434 145.018 252.478 137.869C252.502 134.274 251.796 130.712 250.401 127.399C249.007 124.086 246.953 121.091 244.366 118.595L244.412 118.548Z" stroke="#5754C8" stroke-width="5" stroke-linecap="round" stroke-linejoin="round"/>
<path d="M275.644 213.556L255.011 287.649" stroke="#5754C8" stroke-width="5" stroke-linecap="round" stroke-linejoin="round"/>
<path d="M174.681 213.509L195.267 287.649" stroke="#5754C8" stroke-width="5" stroke-linecap="round" stroke-linejoin="round"/>
<path d="M225.092 328.259C240.38 306.031 242.443 241.505 225.092 216.37C207.788 241.833 209.664 306.172 225.092 328.259Z" stroke="#5754C8" stroke-width="5" stroke-linecap="round" stroke-linejoin="round"/>
<line x1="260.776" y1="352" x2="260.776" y2="407" stroke="#5754C8" stroke-width="3"/>
<line x1="199.776" y1="352" x2="199.776" y2="407" stroke="#5754C8" stroke-width="3"/>
<line x1="229.776" y1="352" x2="229.776" y2="443" stroke="#5754C8" stroke-width="3"/>
</g>
<defs>
<clipPath id="clip0_403_2">
<rect width="318.328" height="318.328" fill="white" transform="translate(0 225.092) rotate(-45)"/>
</clipPath>
</defs>
</svg>
