<svg width="202" height="34" viewBox="0 0 202 34" fill="none" xmlns="http://www.w3.org/2000/svg">
<path d="M13.44 15.656L16.408 27.64H21.56L26.32 8.46H22.008L20.132 16.552L19.068 21.984H19.04L17.864 16.552L15.904 8.46H11.172L9.268 16.552L8.092 21.984H8.064L6.916 16.552L5.04 8.46H0.532L5.32 27.64H10.444L13.384 15.656H13.44ZM40.9767 8.46H27.8447V27.5H41.1167V23.888H32.2407V19.464H39.6887V15.852H32.2407V12.072H40.9767V8.46ZM56.4631 9.216C53.8031 8.46 51.8151 8.18 49.6031 8.18C45.7671 8.18 42.5471 9.664 42.5471 13.556C42.5471 20.5 52.5431 18.96 52.5431 22.18C52.5431 23.412 51.3111 24.28 49.4071 24.28C47.9231 24.28 45.6551 24.028 42.8831 23.328L42.2671 26.856C45.0111 27.612 47.4191 27.78 49.6031 27.78C53.7191 27.78 56.9391 25.96 56.9391 21.872C56.9391 15.012 46.9431 16.748 46.9431 13.556C46.9431 12.436 47.7831 11.708 49.6871 11.708C51.1711 11.708 53.0751 11.932 55.5671 12.632L56.4631 9.216Z" fill="black"/>
<path d="M73.036 8.46H58.448V12.072H63.544V27.5H67.94V12.072H73.036V8.46ZM87.7072 8.46H74.5752V27.5H87.8472V23.888H78.9712V19.464H86.4192V15.852H78.9712V12.072H87.7072V8.46ZM103.512 22.964C101.58 23.748 99.7881 24.168 98.3041 24.168C94.8601 24.168 93.3201 21.816 93.3201 17.98C93.3201 14.172 94.8601 11.792 98.3041 11.792C99.7881 11.792 101.58 12.212 103.512 13.024L104.324 9.692C102.196 8.712 100.096 8.18 97.8001 8.18C91.2761 8.18 88.9241 12.52 88.9241 17.98C88.9241 23.44 91.2761 27.78 97.8001 27.78C100.096 27.78 102.196 27.248 104.324 26.268L103.512 22.964ZM110.717 27.5V19.464H117.353V27.5H121.749V8.46H117.353V15.852H110.717V8.46H106.321V27.5H110.717Z" fill="#111183"/>
<path d="M138.34 26.5C141.35 26.5 142.47 24.414 142.47 21.712C142.47 19.038 141.35 16.98 138.34 16.98H134.91V26.5H138.34ZM136.45 25.17V18.31H138.34C140.23 18.31 140.86 19.71 140.86 21.712C140.86 23.7 140.23 25.17 138.34 25.17H136.45ZM149.829 23.35C149.927 22.944 149.969 22.384 149.969 22.062C149.969 20.732 149.213 19.36 147.057 19.36C144.747 19.36 143.599 20.9 143.599 23C143.599 25.1 144.649 26.64 147.239 26.64C147.939 26.64 148.709 26.57 149.619 26.262L149.451 25.198C148.835 25.436 148.191 25.52 147.519 25.52C145.727 25.52 145.181 24.54 145.139 23.35H149.829ZM145.139 22.3C145.139 21.46 145.671 20.34 147.029 20.34C148.121 20.34 148.569 21.11 148.569 21.67C148.569 21.81 148.569 22.006 148.527 22.3H145.139ZM154.657 26.57L157.205 19.5H155.623L154.419 22.93L153.817 25.128H153.775L153.159 22.93L151.969 19.5H150.317L152.851 26.57H154.657ZM163.651 23.35C163.749 22.944 163.791 22.384 163.791 22.062C163.791 20.732 163.035 19.36 160.879 19.36C158.569 19.36 157.421 20.9 157.421 23C157.421 25.1 158.471 26.64 161.061 26.64C161.761 26.64 162.531 26.57 163.441 26.262L163.273 25.198C162.657 25.436 162.013 25.52 161.341 25.52C159.549 25.52 159.003 24.54 158.961 23.35H163.651ZM158.961 22.3C158.961 21.46 159.493 20.34 160.851 20.34C161.943 20.34 162.391 21.11 162.391 21.67C162.391 21.81 162.391 22.006 162.349 22.3H158.961ZM166.523 16.98H165.053V25.1C165.053 25.912 165.263 26.64 166.551 26.64C166.831 26.64 167.223 26.598 167.573 26.542V25.492C167.405 25.534 167.251 25.548 167.083 25.548C166.677 25.548 166.523 25.366 166.523 24.96V16.98ZM171.428 26.64C173.696 26.64 174.648 24.96 174.648 23C174.648 21.04 173.696 19.36 171.428 19.36C169.146 19.36 168.208 21.04 168.208 23C168.208 24.96 169.146 26.64 171.428 26.64ZM171.428 20.41C172.702 20.41 173.108 21.586 173.108 23C173.108 24.428 172.702 25.59 171.428 25.59C170.154 25.59 169.748 24.428 169.748 23C169.748 21.586 170.154 20.41 171.428 20.41ZM177.225 19.5H175.909V29.02H177.379V25.842H177.407C177.869 26.332 178.541 26.64 179.283 26.64C181.187 26.64 182.069 25.016 182.069 23C182.069 20.984 181.271 19.36 179.367 19.36C178.583 19.36 177.869 19.71 177.407 20.2H177.379L177.225 19.5ZM177.379 21.096C177.631 20.886 178.149 20.55 178.821 20.55C180.025 20.55 180.529 21.614 180.529 23C180.529 24.4 180.025 25.45 178.821 25.45C178.149 25.45 177.631 25.128 177.379 24.918V21.096ZM189.423 23.35C189.521 22.944 189.562 22.384 189.562 22.062C189.562 20.732 188.807 19.36 186.651 19.36C184.341 19.36 183.193 20.9 183.193 23C183.193 25.1 184.243 26.64 186.833 26.64C187.533 26.64 188.303 26.57 189.213 26.262L189.045 25.198C188.429 25.436 187.785 25.52 187.113 25.52C185.321 25.52 184.775 24.54 184.733 23.35H189.423ZM184.733 22.3C184.733 21.46 185.265 20.34 186.623 20.34C187.715 20.34 188.163 21.11 188.163 21.67C188.163 21.81 188.163 22.006 188.121 22.3H184.733ZM192.295 21.53C192.743 21.222 193.667 20.76 194.745 20.76V19.36C193.779 19.36 192.855 19.92 192.323 20.816H192.295L192.141 19.5H190.825V26.5H192.295V21.53ZM200.668 19.682C199.856 19.472 199.184 19.36 198.246 19.36C196.496 19.36 195.376 20.102 195.376 21.376C195.376 23.77 199.114 23.266 199.114 24.68C199.114 25.016 198.876 25.632 197.714 25.632C197.224 25.632 196.412 25.52 195.474 25.24L195.236 26.332C196.048 26.542 196.986 26.64 197.924 26.64C199.674 26.64 200.836 25.884 200.836 24.512C200.836 22.216 197.056 22.65 197.056 21.25C197.056 20.886 197.364 20.382 198.4 20.382C198.904 20.382 199.688 20.522 200.458 20.76L200.668 19.682Z" fill="black" fill-opacity="0.7"/>
</svg>
